# xmcd
#
# Track frame offsets:
#	150
#	18060
#	39058
#	55479
#	70481
#	86770
#	107242
#	123336
#	143515
#	161299
#	178355
#	193397
#	206532
#	223900
#	236594
#	253049
#	268519
#	284428
#	300949
#	317148
#	332221
#
# Disc length: 4619 seconds
#
# Revision: 0
# Processed by: cddbd v1.5.2PL0 Copyright (c) Steve Scherf et al.
# Submitted via: dBpowerAMP V4.0
#
DISCID=39120915
DTITLE=chris burgh - here in your paradise
DYEAR=1900
DGENRE=
TTITLE0=a whole new world
TTITLE1=till the end of forever
TTITLE2=here in your paradise
TTITLE3=you light up my life
TTITLE4=show me heaven
TTITLE5=forever and always
TTITLE6=glory of love
TTITLE7=killing me softly
TTITLE8=when i need you
TTITLE9=with you
TTITLE10=where do we go from here
TTITLE11=how do i live
TTITLE12=just once
TTITLE13=much more than this 
TTITLE14=one in a million
TTITLE15=so beatiful
TTITLE16=never had a dream come true
TTITLE17=i dont want to talk about it
TTITLE18=the lady in red
TTITLE19=the sweetest days
TTITLE20=save the best for last
EXTD=
EXTT0=
EXTT1=
EXTT2=
EXTT3=
EXTT4=
EXTT5=
EXTT6=
EXTT7=
EXTT8=
EXTT9=
EXTT10=
EXTT11=
EXTT12=
EXTT13=
EXTT14=
EXTT15=
EXTT16=
EXTT17=
EXTT18=
EXTT19=
EXTT20=
PLAYORDER=
